<svg xmlns="http://www.w3.org/2000/svg" viewBox="310 520 29 60" width="29" height="60"><g fill="currentColor"><path d="M325.21 524.553c-.016.736 0 1.856 0 1.856l.384-.267s-.019-1.417.013-1.648a.387.387 0 01.605-.25.588.588 0 00-.027-.088.552.552 0 00-.975.397z"/><path d="M319.337 538.56l-.633.184v8.746l.633-.184z"/><path d="M331.725 533.908s-.238-5.523-4.843-6.678v-.436a1.145 1.145 0 00-.2-.058v-3.772c.025.011.054.021.076.034 0 0-.042-1.681-1.453-1.992v-.458h-.405v.46a2.175 2.175 0 00-1.555 1.93v.017c.028-.012.048-.016.076-.028v3.787l-.223.033v.469c-4.948 1.1-5.172 6.546-5.172 6.546a16.2 16.2 0 017.158-1.385 16.553 16.553 0 016.541 1.531zm-7.866-7.224l.03-3.91a2.7 2.7 0 011.213-.228 2.835 2.835 0 011.146.228v3.876a8.36 8.36 0 00-1.183-.072 11.3 11.3 0 00-1.206.105z"/><path d="M320.575 551.719v1.432l.553-.162v-1.431z"/><path d="M321.6 539.857a1.137 1.137 0 00-.849.331 1.589 1.589 0 00-.467 1.152v5.535l.4-.12.323-1.325 1.265-.364v1.234l.389-.548v-4.471c0-.881-.378-1.392-1.061-1.424z"/><path d="M320.113 535.223a22.717 22.717 0 00-4.347 1.527v2.171l-.714.211v5.368l-1.1-1.172-.91.257-1.845 4.084v2.155l-.527 1.032-.307 27.959 1.236.265v-27.93l.437-.791v-2.589l1.469-3.411.327-.1 1.085 2.626v3.308l.089-.026.812-1.5v-9.005l.712-.208v-2.1c1.3-.586 2.879-1.1 2.879-1.1z"/><path d="M319.7 551.971l-.551.162v1.434l.551-.158z"/><path d="M313.9 559.163v20.145c0 .115.171.117.285.117 0 0 .208-1.433.208-1.547l.428-14.915.664-.869v-3.021c0-.348-.059-.637-.328-.684.273-.586.361-.971.954-.971a1.336 1.336 0 01.2.024 1.531 1.531 0 00-.681-.163 1.871 1.871 0 00-1.73 1.884z"/><path d="M318.578 557.808v20.145c0 .114.171.116.285.116 0 0 .207-1.433.207-1.547l.429-14.916.663-.869v-3.02c0-.348-.059-.638-.327-.685.272-.585.361-.971.953-.971a1.224 1.224 0 01.2.025 1.536 1.536 0 00-.681-.163 1.871 1.871 0 00-1.729 1.885z"/><path d="M323.253 556.452V576.6c0 .115.171.117.285.117 0 0 .208-1.434.208-1.548l.428-14.915.664-.869v-3.021c0-.348-.059-.637-.328-.684.273-.585.361-.971.954-.971a1.345 1.345 0 01.2.024 1.544 1.544 0 00-.681-.162 1.87 1.87 0 00-1.73 1.881z"/><path d="M338.82 578.832l-.306-25.567-.247-.169v-3.068l-.317-.213-1.193-2.871-.431-.284-1.671 2.111v-9.755l-.825-.561v-1.408a16.874 16.874 0 00-3.865-1.637l.005.831 1.032.693v11.351l-.527-.345v-3.221l-1.578-2.91-.369-.334v-.951a1.415 1.415 0 00-1-1.507 1.138 1.138 0 00-.178-.027h-.009c-.032 0-.062-.006-.095-.006a1.324 1.324 0 00-.9.382l-.411-2.2-.963-.42v11.02l.849-.235v-3.306l1.459-3.407.294-.08 1.074 2.647v39.028zm-2.626-22.216c.645.3.52 2.324.52 2.7V574.8l-.352-.5-.263-15.942c0-1.4-.6-1.711-.6-1.711.12-.123.695-.031.695-.031zm-2.164-5.282l.439.3v1.36l-.439-.3zm.316 6.307V573.2l-.352-.5-.263-16.021c0-1.4-.6-1.711-.6-1.711.117-.122.692-.03.692-.03.649.296.523 2.324.523 2.703zm-.88-5.316l-.44-.294v-1.356l.44.293zm-.757-11.919c.355.026.73.5.73 1.172v5.6l-.494-.331v-5.521a1.659 1.659 0 00-.53-.922zm-1.249 12.934c.645.3.52 2.324.52 2.7v15.565l-.352-.5-.262-16.025c0-1.4-.6-1.712-.6-1.712.119-.121.694-.029.694-.029z"/><path d="M314.091 549.1l-.442.133v3.042l.442-.933z"/><path d="M327.19 548.388l.442-.933v-2.242l-.442.133z"/></g></svg>